<svg version="1.1" viewBox="0.0 0.0 837.0236220472441 212.06299212598427" fill="none" stroke="none" stroke-linecap="square" stroke-miterlimit="10" xmlns:xlink="http://www.w3.org/1999/xlink" xmlns="http://www.w3.org/2000/svg"><clipPath id="p.0"><path d="m0 0l837.0236 0l0 212.06299l-837.0236 0l0 -212.06299z" clip-rule="nonzero"/></clipPath><g clip-path="url(#p.0)"><path fill="#000000" fill-opacity="0.0" d="m0 0l837.0236 0l0 212.06299l-837.0236 0z" fill-rule="evenodd"/><path fill="#000000" fill-opacity="0.0" d="m7.8241467 4.662653l831.9685 0l0 209.95274l-831.9685 0z" fill-rule="evenodd"/><path fill="#000000" d="m148.19914 68.26777q0 9.234375 -4.625 17.640625q-4.609375 8.390625 -12.421875 14.703125q-7.8124924 6.296875 -18.312492 10.0q-10.5 3.6875 -22.265625 3.6875q-4.203125 0 -6.640625 -1.09375q-2.421875 -1.09375 -5.453125 -4.28125q-8.40625 18.3125 -13.703125 33.687508q-5.281254 15.359375 -8.312504 29.8125q-6.375 -1.515625 -10.40625 -5.296875q-4.03125 -3.78125 -7.390625 -9.484375q1.671875 -3.203125 4.015625 -8.40625q2.359375 -5.203125 5.71875 -12.84375q3.359375 -7.65625 7.8125 -18.312508q4.453125 -10.671875 10.500004 -24.953125q2.6875 -6.546875 4.703125 -11.421875q2.015625 -4.875 3.53125 -9.15625q1.515625 -4.28125 2.765625 -8.484375q1.265625 -4.203121 2.609375 -9.234371q-7.890625 2.515625 -14.53125 5.875q-6.625004 3.3593712 -11.000004 7.046871q-1.515625 -1.0 -3.109375 -3.015625q-1.59375 -2.0156212 -2.9375 -4.453121q-1.34375 -2.4375 -2.359375 -4.953125q-1.0 -2.53125 -1.171875 -4.546875q4.875 -3.359375 12.09375 -6.203125q7.234379 -2.859375 15.453129 -4.953125q8.234375 -2.109375 17.046875 -3.28125q8.828125 -1.171875 16.890625 -1.171875q9.578125 0 17.296875 2.4375q7.7343674 2.421875 13.109367 6.796875q5.375 4.359375 8.234375 10.421875q2.859375 6.046875 2.859375 13.437496zm-29.906242 -20.171871q-6.375 0 -13.09375 1.015625l2.015625 3.015625q-1.6875 2.1875 -4.21875 6.5625q-2.515625 4.359375 -5.546875 10.499996q-3.015625 6.125 -6.625 13.6875q-3.609375 7.5625 -7.640625 15.96875q13.109375 0 23.859375 -2.4375q10.75 -2.4375 18.390625 -6.71875q7.6406174 -4.296875 11.921867 -10.0q4.296875 -5.71875 4.296875 -12.265625q0 -8.734371 -5.890625 -14.031246q-5.875 -5.296875 -17.468742 -5.296875zm88.871605 100.96875q0 -7.046875 2.34375 -18.125q2.359375 -11.093758 6.234375 -23.703133q-11.09375 0.84375 -22.265625 2.1875q-11.171875 1.34375 -19.40625 1.515625q-7.5625 17.640633 -12.015625 32.515633q-4.453125 14.859375 -6.96875 28.96875q-6.375 -1.515625 -10.578125 -5.296875q-4.203125 -3.78125 -7.734375 -9.484375q1.34375 -2.6875 3.109375 -6.890625q1.765625 -4.203125 4.203125 -10.15625q2.4375 -5.96875 5.546875 -13.953133q3.109375 -7.984375 7.140625 -18.5625q-5.546875 -2.359375 -7.390625 -6.546875q0.828125 -0.671875 3.765625 -1.421875q2.953125 -0.765625 7.3125 -1.609375l2.1875 -5.375q3.53125 -9.078125 5.796875 -15.28125q2.265625 -6.21875 3.859375 -12.1875q1.59375 -5.968746 3.015625 -13.187496q1.4375 -7.21875 3.453125 -18.3125q7.0625 1.34375 12.859375 6.21875q5.796875 4.875 9.984375 11.75q-1.5 2.03125 -3.6875 6.0625q-2.1875 4.03125 -4.796875 9.656246q-2.59375 5.625 -5.625 12.59375q-3.015625 6.96875 -6.546875 14.703125q10.421875 -1.34375 21.078125 -2.515625q10.671875 -1.1875 18.90625 -1.6875q3.015625 -8.734375 6.296875 -17.046875q3.28125 -8.3125 6.46875 -15.203121q3.1875 -6.890625 6.125 -12.09375q2.953125 -5.21875 5.296875 -7.734375q1.6875 0.171875 4.453125 1.265625q2.78125 1.09375 5.625 2.609375q2.8593903 1.5 5.2031403 3.265625q2.359375 1.765625 3.203125 3.28125q-3.03125 2.84375 -6.0625 7.390625q-3.0156403 4.53125 -5.9531403 10.421871q-2.9375 5.875 -5.796875 12.765625q-2.859375 6.875 -5.375 14.265625q3.359375 3.03125 3.359375 7.5625q0 3.203125 -1.34375 5.890625q-1.515625 -0.34375 -3.03125 -0.421875q-1.5 -0.09375 -3.1875 -0.25q-2.84375 9.0625 -5.203125 17.96875q-2.359375 8.906258 -3.953125 16.968758q-1.59375 8.0625 -2.515625 14.78125q-0.921875 6.71875 -0.921875 11.265625q0 1.671875 0.078125 2.671875q0.09375 1.015625 0.25 1.6875q-3.6875 -0.171875 -5.375 -1.265625q-1.671875 -1.078125 -2.515625 -2.34375q-0.84375 -1.265625 -1.515625 -2.53125q-0.671875 -1.25 -2.171875 -1.921875q-1.1875 -0.5 -2.203125 -2.359375q-1.0 -1.84375 -1.671875 -4.1875q-0.671875 -2.359375 -1.015625 -4.703125q-0.328125 -2.359375 -0.328125 -3.875zm162.29063 -80.79688q0 9.234375 -4.625 17.640625q-4.609375 8.390625 -12.421875 14.703125q-7.8125 6.296875 -18.3125 10.0q-10.5 3.6875 -22.265625 3.6875q-4.203125 0 -6.640625 -1.09375q-2.421875 -1.09375 -5.453125 -4.28125q-8.40625 18.3125 -13.703125 33.687508q-5.28125 15.359375 -8.3125 29.8125q-6.375 -1.515625 -10.40625 -5.296875q-4.03125 -3.78125 -7.390625 -9.484375q1.671875 -3.203125 4.015625 -8.40625q2.359375 -5.203125 5.71875 -12.84375q3.359375 -7.65625 7.8125 -18.312508q4.453125 -10.671875 10.5 -24.953125q2.6875 -6.546875 4.703125 -11.421875q2.015625 -4.875 3.53125 -9.15625q1.515625 -4.28125 2.765625 -8.484375q1.265625 -4.203121 2.609375 -9.234371q-7.890625 2.515625 -14.53125 5.875q-6.625 3.3593712 -11.0 7.046871q-1.515625 -1.0 -3.109375 -3.015625q-1.59375 -2.0156212 -2.9375 -4.453121q-1.34375 -2.4375 -2.359375 -4.953125q-1.0 -2.53125 -1.171875 -4.546875q4.875 -3.359375 12.09375 -6.203125q7.234375 -2.859375 15.453125 -4.953125q8.234375 -2.109375 17.046875 -3.28125q8.828125 -1.171875 16.890625 -1.171875q9.578125 0 17.296875 2.4375q7.734375 2.421875 13.109375 6.796875q5.375 4.359375 8.234375 10.421875q2.859375 6.046875 2.859375 13.437496zm-29.90625 -20.171871q-6.375 0 -13.09375 1.015625l2.015625 3.015625q-1.6875 2.1875 -4.21875 6.5625q-2.515625 4.359375 -5.546875 10.499996q-3.015625 6.125 -6.625 13.6875q-3.609375 7.5625 -7.640625 15.96875q13.109375 0 23.859375 -2.4375q10.75 -2.4375 18.390625 -6.71875q7.640625 -4.296875 11.921875 -10.0q4.296875 -5.71875 4.296875 -12.265625q0 -8.734371 -5.890625 -14.031246q-5.875 -5.296875 -17.46875 -5.296875zm80.63684 79.46875q-5.203125 0 -8.3125 -2.9375q-3.109375 -2.9375 -3.109375 -8.15625q0 -0.828125 0.328125 -2.5q0.34375 -1.6875 0.6875 -2.53125q2.859375 0.5 5.375 0.59375q2.515625 0.078125 6.546875 0.078125q8.578125 0 16.046875 -0.5q7.46875 -0.515625 13.515625 -1.1875q6.0625 -0.671875 10.421875 -1.171875q4.375 -0.5 6.71875 -0.5q3.203125 0 5.625 3.859375q2.4375 3.859375 3.625 11.09375q-4.203125 -0.5 -6.890625 -0.671875q-2.6875 -0.171875 -4.703125 -0.171875q-7.234375 0 -13.453125 0.765625q-6.203125 0.75 -11.75 1.59375q-5.546875 0.828125 -10.59375 1.59375q-5.03125 0.75 -10.078125 0.75zm117.94574 -1.671875q0 -11.765625 2.765625 -23.109375q2.78125 -11.34375 7.8125 -21.5q5.046875 -10.171875 12.015625 -18.640621q6.96875 -8.484375 15.28125 -14.703125q8.328125 -6.21875 17.734375 -9.65625q9.40625 -3.453125 19.3125 -3.453125q11.59375 0 18.0625 4.875q6.46875 4.875 6.46875 13.609375q0 3.359375 -0.921875 6.890625q-0.921875 3.515625 -2.6875 6.968746q-1.765625 3.4375 -4.125 6.640625q-2.34375 3.1875 -5.203125 5.53125q-4.359375 -0.671875 -7.5625 -3.9375q-3.1875 -3.28125 -4.03125 -7.65625q5.875 -4.859371 9.3125 -10.156246q3.453125 -5.296875 3.453125 -9.65625q0 -7.390625 -9.234375 -7.390625q-3.859375 0 -7.984375 1.59375q-4.109375 1.59375 -8.3125 4.453125q-4.203125 2.84375 -8.15625 6.890625q-3.9375 4.03125 -7.296875 8.890625q-23.359375 33.60937 -23.359375 68.71875q0 12.4375 3.859375 20.0q3.875 7.546875 10.25 8.890625q7.234375 -1.671875 18.3125 -9.234375q11.09375 -7.5625 24.203125 -19.65625q1.671875 1.671875 2.015625 3.53125q-4.875 6.375 -10.09375 12.265625q-5.203125 5.875 -10.328125 10.75q-5.125 4.875 -10.078125 8.5625q-4.953125 3.703125 -9.15625 5.71875q-20.828125 -0.34375 -31.578125 -11.9375q-10.75 -11.59375 -10.75 -34.093758zm112.897644 38.796883q-9.578125 -1.0 -15.296875 -8.390625q-5.703125 -7.390625 -5.703125 -18.828125q0 -6.71875 2.015625 -13.937508q2.015625 -7.21875 5.703125 -14.015625q3.703125 -6.8125 8.734375 -12.859375q5.046875 -6.046875 10.921875 -10.421875q9.25 -6.890625 17.3125 -6.890625q5.375 2.859375 10.578125 11.9375q0.84375 0 1.515625 -0.078125q0.671875 -0.09375 1.515625 -0.09375q8.890625 0 8.890625 15.796875q0 10.578125 -3.4375 20.078125q-3.4375 9.484383 -9.578125 17.218758q-6.125 7.71875 -14.609375 13.015625q-8.484375 5.296875 -18.5625 7.46875zm8.5625 -52.921883q-2.859375 3.875 -5.375 8.40625q-2.515625 4.53125 -4.375 9.156258q-1.84375 4.625 -2.859375 8.90625q-1.0 4.28125 -1.0 7.640625q0 4.03125 1.34375 7.734375q1.34375 3.6875 3.03125 4.1875q7.5625 -1.671875 13.859375 -6.28125q6.296875 -4.625 10.90625 -11.515625q4.625 -6.890625 7.234375 -15.625008q2.609375 -8.734375 2.609375 -18.65625q0 -4.359375 -0.515625 -6.875q-0.5 -2.53125 -1.671875 -4.375q-7.390625 2.1875 -13.1875 7.0625q-5.796875 4.859375 -10.0 10.234375zm41.666138 43.687508q0.84375 -4.875 2.9375 -12.84375q2.09375 -7.984375 4.953125 -16.968758q2.859375 -9.0 6.046875 -18.0625q3.203125 -9.078125 6.21875 -16.296875q2.1875 -5.21875 3.859375 -8.15625q1.6875 -2.9375 3.703125 -4.953125q2.359375 0.34375 4.875 1.1875q2.515625 0.828125 4.859375 2.015625q2.359375 1.171875 4.203125 2.4375q1.859375 1.25 2.859375 2.421875q-4.53125 5.375 -7.984375 12.265625q-3.4375 6.890625 -6.96875 17.640625q9.078125 -8.0625 16.046875 -15.453125q6.96875 -7.390625 13.015625 -16.46875q1.015625 -0.84375 3.53125 -0.84375q2.359375 0 4.53125 0.765625q2.1875 0.75 3.03125 2.09375q-3.03125 8.0625 -3.03125 15.96875q0 7.390625 2.1875 11.078125q-0.171875 1.015625 -2.265625 3.875q-2.09375 2.84375 -4.625 5.375q-4.53125 -2.359375 -8.0625 -6.46875q-3.53125 -4.125 -5.203125 -9.0q-7.890625 5.546875 -13.4375 10.84375q-5.546875 5.296875 -9.5 11.765633q-3.9375 6.453125 -6.71875 14.859375q-2.765625 8.40625 -5.28125 20.0q-1.515625 -0.171875 -3.625 -1.09375q-2.09375 -0.921875 -4.203125 -2.265625q-2.09375 -1.34375 -3.78125 -2.859375q-1.671875 -1.515625 -2.171875 -2.859375zm131.87585 -66.18751q-0.671875 10.40625 -3.703125 17.890625q-3.015625 7.46875 -8.640625 13.109375q-5.625 5.625 -13.6875 10.156258q-8.0625 4.53125 -18.828125 8.734375q0 1.015625 -0.078125 2.109375q-0.078125 1.078125 -0.078125 2.265625q0 2.171875 0.328125 4.53125q0.34375 2.34375 1.171875 4.359375q0.84375 2.015625 2.359375 3.28125q1.515625 1.265625 3.859375 1.265625q4.546875 0 8.90625 -2.015625q4.375 -2.015625 8.3125 -4.953125q3.953125 -2.953125 7.390625 -6.390625q3.453125 -3.4375 6.140625 -6.296875q1.671875 1.515625 2.859375 2.859375q-7.5625 10.078125 -16.5625 16.71875q-8.984375 6.625 -17.046875 8.46875q-11.59375 -1.34375 -18.0625 -8.484375q-6.46875 -7.140625 -6.46875 -17.21875q0 -6.890625 1.9375 -14.015633q1.9375 -7.140625 5.375 -13.78125q3.453125 -6.640625 8.0625 -12.515625q4.625 -5.890625 9.90625 -10.25q5.296875 -4.375 10.921875 -6.890625q5.640625 -2.515625 11.171875 -2.515625q7.734375 1.0 14.453125 9.578125zm-11.59375 5.53125q-4.53125 0.671875 -9.40625 3.703125q-4.875 3.03125 -9.15625 8.078125q-4.28125 5.03125 -7.8125 11.75q-3.53125 6.71875 -5.546875 14.437508q13.453125 -6.7187576 22.34375 -16.546883q8.90625 -9.828125 9.578125 -21.421875z" fill-rule="nonzero"/><path fill="#000000" fill-opacity="0.0" d="m672.80054 166.79265l166.99213 0l0 47.81102l-166.99213 0z" fill-rule="evenodd"/><path fill="#000000" d="m712.5349 175.47427q0.96875 0.140625 1.328125 0.59375q0.375 0.453125 0.375 1.171875q0 2.390625 -2.5625 2.21875l-1.21875 -0.09375q-2.046875 -0.171875 -4.078125 -0.28125q-2.015625 -0.109375 -4.234375 -0.109375l-1.5625 0q-0.40625 5.140625 -0.859375 9.359375l5.953125 -0.09375q1.28125 0 1.71875 0.453125q0.4375 0.4375 0.4375 1.203125q0 1.171875 -0.703125 1.859375q-0.6875 0.671875 -1.96875 0.671875l-5.921875 0l-0.21875 1.484375q-0.71875 5.71875 -3.09375 8.15625q-2.375 2.421875 -6.53125 2.421875q-2.359375 0 -4.34375 -1.015625q-1.96875 -1.03125 -2.90625 -2.484375q-0.375 -0.59375 -0.375 -1.421875q0 -0.828125 0.390625 -1.453125q0.40625 -0.625 1.0 -0.625q0.40625 0 0.796875 0.28125q0.40625 0.265625 1.03125 1.0625q1.671875 2.1875 4.125 2.1875q1.96875 0 3.296875 -1.609375q1.34375 -1.609375 1.734375 -5.078125l0.203125 -1.90625l-1.671875 0q-0.796875 0 -1.375 -0.453125q-0.5625 -0.453125 -0.5625 -1.28125q0 -1.078125 0.546875 -1.640625q0.5625 -0.578125 1.640625 -0.578125q0.96875 0 1.90625 -0.03125q0.421875 -3.8125 0.90625 -9.25q-3.75 0.34375 -5.28125 1.21875q-1.515625 0.859375 -1.515625 2.546875q0 1.1875 0.6875 2.265625q0.21875 0.296875 0.21875 0.609375q0 0.625 -0.703125 1.09375q-0.6875 0.46875 -1.5625 0.46875q-0.921875 0 -1.59375 -0.546875q-0.40625 -0.34375 -0.796875 -1.421875q-0.375 -1.078125 -0.375 -2.390625q0 -4.296875 4.421875 -6.234375q4.421875 -1.953125 12.90625 -1.953125q5.890625 0 10.390625 0.625z" fill-rule="nonzero"/><path fill="#000000" d="m713.67896 204.28677q-1.703125 0 -3.03125 -0.75q-1.328125 -0.75 -2.09375 -2.078125q-0.75 -1.34375 -0.75 -3.078125q0 -1.75 0.75 -3.078125q0.765625 -1.328125 2.09375 -2.078125q1.328125 -0.765625 3.03125 -0.765625q1.71875 0 3.03125 0.765625q1.328125 0.75 2.09375 2.078125q0.765625 1.328125 0.765625 3.078125q0 1.734375 -0.765625 3.078125q-0.75 1.328125 -2.078125 2.078125q-1.3125 0.75 -3.046875 0.75zm0 -1.765625q1.15625 0 2.046875 -0.53125q0.90625 -0.53125 1.40625 -1.453125q0.515625 -0.9375 0.515625 -2.15625q0 -1.203125 -0.515625 -2.140625q-0.5 -0.953125 -1.40625 -1.484375q-0.890625 -0.53125 -2.046875 -0.53125q-1.140625 0 -2.046875 0.53125q-0.890625 0.53125 -1.40625 1.484375q-0.515625 0.9375 -0.515625 2.140625q0 1.21875 0.515625 2.15625q0.515625 0.921875 1.40625 1.453125q0.90625 0.53125 2.046875 0.53125zm10.058472 -5.5625q0.015625 -1.296875 0.640625 -2.3125q0.625 -1.03125 1.6875 -1.625q1.0625 -0.609375 2.3125 -0.609375q1.171875 0 1.765625 0.375q0.609375 0.375 0.46875 0.921875q-0.078125 0.3125 -0.265625 0.46875q-0.171875 0.140625 -0.4375 0.15625q-0.25 0.015625 -0.546875 -0.046875q-1.328125 -0.203125 -2.359375 0.078125q-1.03125 0.265625 -1.640625 0.9375q-0.59375 0.65625 -0.59375 1.65625l-1.03125 0zm0.0625 7.25q-0.46875 0 -0.734375 -0.234375q-0.25 -0.25 -0.25 -0.75l0 -9.703125q0 -0.46875 0.25 -0.71875q0.265625 -0.265625 0.734375 -0.265625q0.484375 0 0.71875 0.25q0.25 0.25 0.25 0.734375l0 9.703125q0 0.46875 -0.25 0.734375q-0.234375 0.25 -0.71875 0.25zm24.642334 0.015625q-0.421875 0 -0.71875 -0.28125q-0.28125 -0.28125 -0.28125 -0.71875l0 -6.125q0 -1.375 -0.703125 -2.109375q-0.703125 -0.734375 -1.828125 -0.734375q-1.171875 0 -1.9375 0.8125q-0.75 0.796875 -0.75 2.078125l-1.671875 0q0 -1.390625 0.59375 -2.453125q0.609375 -1.0625 1.671875 -1.65625q1.0625 -0.59375 2.4375 -0.59375q1.234375 0 2.171875 0.546875q0.953125 0.546875 1.484375 1.59375q0.546875 1.046875 0.546875 2.515625l0 6.125q0 0.4375 -0.28125 0.71875q-0.28125 0.28125 -0.734375 0.28125zm-14.453125 0q-0.453125 0 -0.734375 -0.28125q-0.265625 -0.28125 -0.265625 -0.71875l0 -9.65625q0 -0.453125 0.265625 -0.71875q0.28125 -0.28125 0.734375 -0.28125q0.453125 0 0.71875 0.28125q0.28125 0.265625 0.28125 0.71875l0 9.65625q0 0.4375 -0.28125 0.71875q-0.265625 0.28125 -0.71875 0.28125zm7.25 0q-0.453125 0 -0.734375 -0.28125q-0.265625 -0.28125 -0.265625 -0.71875l0 -6.125q0 -1.375 -0.703125 -2.109375q-0.703125 -0.734375 -1.828125 -0.734375q-1.1875 0 -1.953125 0.796875q-0.765625 0.796875 -0.765625 2.046875l-1.296875 0q0.015625 -1.359375 0.5625 -2.40625q0.5625 -1.0625 1.546875 -1.65625q0.984375 -0.59375 2.234375 -0.59375q1.25 0 2.1875 0.546875q0.953125 0.546875 1.46875 1.59375q0.53125 1.046875 0.53125 2.515625l0 6.125q0 0.4375 -0.265625 0.71875q-0.265625 0.28125 -0.71875 0.28125zm16.788574 0.09375q-1.5 0 -2.671875 -0.625q-1.171875 -0.640625 -1.859375 -1.84375q-0.671875 -1.21875 -0.671875 -2.96875l0 -5.359375q0 -0.421875 0.28125 -0.703125q0.296875 -0.296875 0.71875 -0.296875q0.421875 0 0.703125 0.296875q0.296875 0.28125 0.296875 0.703125l0 5.359375q0 1.234375 0.46875 2.03125q0.46875 0.796875 1.265625 1.203125q0.8125 0.390625 1.8125 0.390625q0.953125 0 1.703125 -0.375q0.765625 -0.390625 1.203125 -1.03125q0.453125 -0.640625 0.453125 -1.453125l1.28125 0q-0.015625 1.328125 -0.6875 2.390625q-0.65625 1.0625 -1.78125 1.671875q-1.109375 0.609375 -2.515625 0.609375zm4.6875 -0.109375q-0.421875 0 -0.703125 -0.265625q-0.28125 -0.28125 -0.28125 -0.734375l0 -9.6875q0 -0.453125 0.28125 -0.71875q0.28125 -0.28125 0.703125 -0.28125q0.453125 0 0.71875 0.28125q0.28125 0.265625 0.28125 0.71875l0 9.6875q0 0.453125 -0.28125 0.734375q-0.265625 0.265625 -0.71875 0.265625zm7.534424 0q-0.921875 0 -1.625 -0.5q-0.703125 -0.5 -1.09375 -1.359375q-0.390625 -0.875 -0.390625 -2.0l0 -11.8125q0 -0.453125 0.265625 -0.71875q0.265625 -0.265625 0.703125 -0.265625q0.453125 0 0.71875 0.265625q0.265625 0.265625 0.265625 0.71875l0 11.8125q0 0.828125 0.3125 1.359375q0.328125 0.53125 0.84375 0.53125l0.53125 0q0.40625 0 0.640625 0.28125q0.234375 0.265625 0.234375 0.703125q0 0.453125 -0.359375 0.71875q-0.359375 0.265625 -0.921875 0.265625l-0.125 0zm7.896118 0.078125q-1.578125 0 -2.84375 -0.765625q-1.265625 -0.765625 -1.984375 -2.109375q-0.71875 -1.34375 -0.71875 -3.03125q0 -1.703125 0.765625 -3.03125q0.78125 -1.328125 2.109375 -2.109375q1.34375 -0.78125 3.0 -0.78125q1.6875 0 3.0 0.78125q1.328125 0.78125 2.109375 2.125q0.78125 1.34375 0.78125 3.015625l-0.765625 0.171875q0 1.625 -0.71875 2.9375q-0.703125 1.296875 -1.9375 2.046875q-1.21875 0.75 -2.796875 0.75zm0.328125 -1.765625q1.15625 0 2.03125 -0.53125q0.890625 -0.546875 1.40625 -1.484375q0.53125 -0.953125 0.53125 -2.125q0 -1.1875 -0.53125 -2.125q-0.515625 -0.9375 -1.40625 -1.484375q-0.875 -0.546875 -2.03125 -0.546875q-1.109375 0 -2.015625 0.546875q-0.90625 0.546875 -1.4375 1.484375q-0.515625 0.9375 -0.515625 2.125q0 1.171875 0.515625 2.125q0.53125 0.9375 1.4375 1.484375q0.90625 0.53125 2.015625 0.53125zm4.890625 1.703125q-0.421875 0 -0.71875 -0.28125q-0.28125 -0.28125 -0.28125 -0.71875l0 -3.390625l0.40625 -2.0625l1.59375 0.609375l0 4.84375q0 0.4375 -0.28125 0.71875q-0.265625 0.28125 -0.71875 0.28125z" fill-rule="nonzero"/><path fill="#000000" d="m805.12616 198.1774q1.1875 0 1.1875 0.90625q0 0.890625 -0.796875 1.3125q-0.78125 0.421875 -1.78125 0.609375q-0.984375 0.171875 -1.859375 0.1875q-0.859375 0.015625 -1.109375 0.078125q-0.234375 0.046875 -1.046875 0.28125q-0.8125 0.234375 -1.9375 0.546875q-1.109375 0.296875 -2.40625 0.65625q-4.09375 1.09375 -6.5 1.09375q-1.234375 0 -1.65625 -0.375q-0.40625 -0.390625 -0.15625 -1.078125q2.703125 -2.375 5.640625 -6.140625q4.359375 -5.59375 4.359375 -8.734375q0 -0.625 -0.171875 -1.15625q-0.40625 -1.125 -2.0625 -1.453125q-1.59375 0 -2.609375 0.65625q-1.0 0.640625 -1.890625 1.4375q-0.875 0.796875 -1.796875 1.453125q-0.921875 0.640625 -2.265625 0.640625q0.03125 -1.1875 0.96875 -2.3125q1.890625 -2.3125 5.3125 -3.3125q1.234375 -0.40625 1.953125 -0.40625q0.734375 0 1.09375 0.03125q1.40625 0.15625 2.40625 1.03125q1.015625 0.859375 1.203125 2.65625q0 5.09375 -4.765625 11.3125q-1.3125 1.703125 -2.578125 3.140625q0.40625 0.046875 1.25 0.046875q0.859375 0 2.328125 -0.421875q1.484375 -0.421875 3.140625 -1.015625q1.671875 -0.59375 3.296875 -1.125q1.625 -0.546875 3.25 -0.546875zm2.7519531 5.453125q0 -0.6875 0.046875 -2.140625q0.0625 -1.46875 0.109375 -3.3125q0.0625 -1.84375 0.125 -3.859375q0.078125 -2.03125 0.125 -3.875q0.0625 -1.84375 0.09375 -3.28125q0.03125 -1.453125 0.078125 -2.171875q-0.078125 -0.796875 0.28125 -1.015625q0.359375 -0.21875 0.8125 -0.21875q0.453125 0 0.796875 0.078125q0.34375 0.0625 0.484375 0.578125l-0.578125 18.5625q-0.0625 0.65625 -1.0 0.9375q-0.9375 0.265625 -1.375 -0.28125z" fill-rule="nonzero"/><path fill="#000000" fill-opacity="0.0" d="m617.14435 173.64305l59.055115 0l0 42.015747l-59.055115 0z" fill-rule="evenodd"/><path fill="#000000" d="m644.2566 202.94518q-1.640625 0 -2.953125 -0.75q-1.3125 -0.765625 -2.078125 -2.09375q-0.75 -1.328125 -0.78125 -2.984375l0 -9.703125q0 -0.453125 0.265625 -0.71875q0.28125 -0.28125 0.734375 -0.28125q0.4375 0 0.703125 0.28125q0.28125 0.265625 0.28125 0.71875l0 5.84375q0.71875 -0.921875 1.78125 -1.453125q1.078125 -0.546875 2.390625 -0.546875q1.5625 0 2.796875 0.78125q1.25 0.765625 1.96875 2.078125q0.734375 1.3125 0.734375 2.984375q0 1.65625 -0.78125 2.984375q-0.765625 1.328125 -2.078125 2.09375q-1.3125 0.765625 -2.984375 0.765625zm0 -1.734375q1.125 0 2.0 -0.53125q0.890625 -0.546875 1.40625 -1.484375q0.515625 -0.9375 0.515625 -2.09375q0 -1.1875 -0.515625 -2.09375q-0.515625 -0.921875 -1.40625 -1.453125q-0.875 -0.546875 -2.0 -0.546875q-1.109375 0 -2.0 0.546875q-0.875 0.53125 -1.390625 1.453125q-0.5 0.90625 -0.5 2.09375q0 1.15625 0.5 2.09375q0.515625 0.9375 1.390625 1.484375q0.890625 0.53125 2.0 0.53125zm10.430481 6.6875q-0.203125 0 -0.46875 -0.109375q-0.859375 -0.375 -0.484375 -1.21875l6.5625 -14.671875q0.390625 -0.8125 1.21875 -0.46875q0.875 0.375 0.484375 1.21875l-6.578125 14.65625q-0.234375 0.59375 -0.734375 0.59375zm2.421875 -5.453125q-0.359375 0.140625 -0.6875 0.03125q-0.328125 -0.109375 -0.515625 -0.5l-4.78125 -9.34375q-0.1875 -0.375 -0.046875 -0.71875q0.140625 -0.34375 0.515625 -0.484375q0.359375 -0.171875 0.6875 -0.046875q0.34375 0.125 0.515625 0.484375l4.609375 9.359375q0.1875 0.375 0.125 0.71875q-0.046875 0.328125 -0.421875 0.5zm6.7597046 3.984375q-0.234375 0 -0.375 -0.15625q-0.125 -0.140625 -0.125 -0.359375q0 -0.375 0.21875 -0.671875q0.234375 -0.296875 0.453125 -0.640625q0.234375 -0.328125 0.234375 -0.78125q0 -0.390625 -0.15625 -0.625q-0.15625 -0.21875 -0.375 -0.421875q-0.203125 -0.203125 -0.375 -0.453125q-0.15625 -0.25 -0.15625 -0.625q0 -0.5625 0.375 -0.90625q0.375 -0.359375 0.984375 -0.359375q0.734375 0 1.140625 0.53125q0.40625 0.515625 0.4375 1.4375q0 0.640625 -0.21875 1.34375q-0.203125 0.71875 -0.546875 1.3125q-0.328125 0.609375 -0.734375 0.984375q-0.40625 0.390625 -0.78125 0.390625z" fill-rule="nonzero"/></g></svg>